<?xml version="1.0" encoding="UTF-8"?>
<svg width="882px" height="201px" viewBox="0 0 882 201" version="1.1" xmlns="http://www.w3.org/2000/svg" xmlns:xlink="http://www.w3.org/1999/xlink">
    <title>两仪云-浅备份 3</title>
    <g id="logo-方案" stroke="none" stroke-width="1" fill="none" fill-rule="evenodd">
        <g id="两仪云-浅备份-3">
            <path d="M499.521379,61.2754542 C503.578042,61.2754542 507.073875,62.8243785 510.00888,65.9035653 C512.943885,68.9827521 514.551594,72.8457319 514.869398,77.4925048 L517.598765,127.076743 L551.472833,77.6604604 L565.755277,77.6604604 L587.926714,129.353475 L604.938525,71.2781459 C607.574421,64.6159054 611.724555,61.2754542 617.388927,61.2754542 L630.904905,61.2754542 L600.227562,165.594571 L575.158508,165.594571 L555.566884,109.64668 L521.244153,165.594571 L496.792011,165.594571 L491.931494,61.2754542 L499.521379,61.2754542 Z M497.870672,34.904552 L496.954652,40.5030734 C496.244268,44.5526706 494.393533,47.8557983 491.402445,50.4311182 C488.411358,53.0250998 484.89683,54.294098 480.858861,54.294098 L457.004937,54.294098 L444.255426,144.952822 C443.339405,151.036549 440.647426,155.98191 436.198184,159.826228 C431.748941,163.670546 426.533231,165.592705 420.551056,165.592705 L413.110726,165.592705 L428.757853,54.294098 L389.724159,54.294098 L390.621485,50.0392217 C391.537506,45.597728 393.68735,41.9773508 397.089712,39.1407666 C400.47338,36.3041823 404.399183,34.904552 408.848426,34.904552 L497.870672,34.904552 Z M666.906384,34.5947671 L683.918195,34.5947671 L681.936599,48.7030412 C681.544019,50.7185089 680.627998,52.3607419 679.207232,53.6297401 C677.786465,54.8800766 676.122673,55.5145757 674.19716,55.5145757 L655.820665,55.5145757 L657.634012,42.4886824 C657.951815,40.1559651 658.980001,38.2524678 660.75596,36.7968522 C662.531918,35.3225749 664.569597,34.5947671 666.906384,34.5947671 L666.906384,34.5947671 Z M652.324831,74.7734895 C652.829577,71.9369053 654.119484,69.6228498 656.194551,67.7939994 C658.269618,65.9838108 660.718571,65.0693856 663.560104,65.0693856 L678.908123,65.0693856 L667.971959,144.363111 C667.055938,150.745426 664.270488,155.914727 659.615608,159.908339 C654.960727,163.901951 649.539381,165.898757 643.370263,165.898757 L639.874429,165.898757 L652.324831,74.7734895 Z M732.06349,98.5802689 L724.32405,154.210911 C723.707139,157.551362 722.1929,160.294637 719.762642,162.403414 C717.332383,164.530852 714.453461,165.594571 711.107182,165.594571 L696.376075,165.594571 L708.976032,75.2344344 C709.592944,71.2781459 711.331513,68.068327 714.210435,65.5863158 C717.108051,63.1229663 720.473025,61.8726299 724.32405,61.8726299 L733.278619,61.8726299 L731.147469,78.1083421 C737.036173,72.5471441 742.8501,68.348253 748.626638,65.5303306 C754.29101,62.787055 760.011465,61.4247482 765.788003,61.4247482 C772.162759,61.4247482 777.378468,62.432482 781.435131,64.4666115 C785.473099,66.5753879 788.557658,69.4306338 790.688808,72.9577024 C792.91343,76.5780796 794.278113,80.7956324 794.782859,85.5357139 C795.287605,90.3877659 795.100662,96.154243 794.184642,102.835145 L787.04342,165.594571 L760.777931,165.594571 L767.302241,107.220654 C767.900459,102.77916 768.068708,99.2334298 767.750905,96.6207864 C767.451796,94.08279 766.797495,91.9180284 765.788003,90.0891781 C764.871983,88.167019 763.451216,86.6927417 761.525703,85.7036696 C759.712356,84.677274 757.469041,84.173407 754.851839,84.173407 C751.50556,84.173407 747.972337,85.38642 744.214783,87.812446 C740.475924,90.3504424 736.419261,93.9334961 732.06349,98.5802689 M873.612975,113.433146 C875.445016,115.765864 876.8097,118.527801 877.707026,121.774943 C878.623047,124.910115 878.716518,128.586478 878.024829,132.841354 C877.314446,138.290582 875.631959,143.10531 873.014757,147.248216 C870.472333,151.185843 867.331691,154.563617 863.592831,157.400202 C859.741806,160.124815 855.479506,162.196268 850.824626,163.61456 C846.076274,164.939544 841.159674,165.592705 836.093519,165.592705 C832.653768,165.592705 829.475738,165.275455 826.522038,164.67828 C823.699199,164.174413 821.212858,163.521252 819.081708,162.718797 C816.744921,161.897681 814.875491,161.001917 813.473418,159.975521 C811.847015,159.061096 810.687968,158.109348 809.977585,157.101614 L808.91201,155.590013 L811.192714,150.290079 C812.706952,146.837658 815.043739,144.206353 818.184382,142.396164 C821.511967,140.567314 825.0078,140.231402 828.653188,141.332445 L829.120546,141.481739 C829.419655,141.593709 829.718763,141.687018 830.017872,141.798988 C832.261188,142.396164 834.934472,142.694752 838.075115,142.694752 C840.094099,142.694752 841.982223,142.508135 843.683404,142.078915 C845.309808,141.593709 846.730574,140.940549 847.945704,140.119432 C848.861724,139.428948 849.665579,138.514523 850.375963,137.394818 C850.992874,136.181805 851.441538,134.819498 851.740646,133.289236 C851.946284,131.982914 851.740646,130.881872 851.142429,129.967446 C850.31988,128.735772 849.254305,127.634729 847.945704,126.626995 C846.524937,125.6006 844.767673,124.611528 842.636523,123.585132 C840.299736,122.577398 837.962949,121.42037 835.644856,120.095387 C833.214597,118.994344 830.821727,117.632037 828.503634,116.008466 C826.073375,114.403557 823.998308,112.369427 822.278433,109.943401 C820.465086,107.536037 819.137791,104.680791 818.333936,101.45231 C817.417915,98.3171384 817.212278,94.5847908 817.717024,90.2366058 C818.633045,85.4965243 820.296837,81.3909419 822.727096,77.957182 C825.063883,74.3181431 827.998888,71.2202945 831.550805,68.7196216 C834.990555,66.2935957 838.878969,64.4647453 843.234741,63.2517323 C850.132937,61.3295733 856.900273,60.9376768 863.592831,62.0387193 C865.817453,62.3373072 867.948603,62.7851889 869.967587,63.4010262 C872.005265,64.0915105 873.762529,64.8193183 875.276767,65.5284644 L875.445016,65.6590966 C875.949762,65.9763461 876.454508,66.2935957 876.959254,66.5735217 C877.557472,67.0027417 878.267855,67.3946382 879.07171,67.8051964 L881.371109,69.3167972 L877.557472,77.6585942 C876.660145,79.7673706 874.884187,81.7268532 872.248291,83.4997183 C869.612395,85.2539217 865.723981,85.3845538 860.545661,83.8729531 C858.526676,83.2571157 856.488998,82.809234 854.488708,82.5106462 C852.656667,82.5106462 851.086346,82.7532488 849.777745,83.2571157 C848.562616,83.5557035 847.590512,84.022247 846.880129,84.6194226 C845.964108,85.3285686 845.309808,86.1496851 844.898533,87.0454485 C844.300316,88.0718442 843.889041,89.0609163 843.683404,90.0873119 C843.589932,91.3936336 843.79557,92.5693231 844.300316,93.5770569 C845.010699,94.6780995 846.020191,95.7044951 847.347486,96.6189203 C849.067362,97.8132715 850.936792,98.8769906 852.955776,99.7914157 C855.386034,100.892458 857.722822,102.012163 859.947443,103.113205 C862.471173,104.34488 864.901432,105.763172 867.238219,107.368081 C869.668478,109.103623 871.780934,111.119091 873.612975,113.433146" id="形状结合备份-5" fill="#2D3D48"></path>
            <g id="编组-5备份">
                <path d="M196.227236,200.181873 C186.663586,200.181873 177.099038,196.540941 169.818093,189.259078 L90.8205493,110.251575 C85.5600929,104.991353 85.5600929,96.4611189 90.8205493,91.1999993 C96.0810057,85.9397778 104.610165,85.9397778 109.869723,91.1999993 L188.867267,170.207502 C192.925307,174.266953 199.529165,174.266953 203.587205,170.207502 L265.706927,108.079949 C270.110696,103.674726 270.110696,96.5069224 265.706927,92.1017002 L203.587205,29.9741467 C199.529165,25.9155943 192.925307,25.9155943 188.867267,29.9741467 L157.493107,61.3522614 C152.233549,66.6124829 143.70439,66.6124829 138.443933,61.3522614 C133.183477,56.0920399 133.183477,47.5609073 138.443933,42.3006858 L169.818093,10.9234692 C184.380882,-3.64115638 208.07359,-3.64115638 222.636379,10.9234692 L284.756101,73.0501246 C299.665517,87.9605219 299.665517,112.222025 284.756101,127.131524 L222.636379,189.259078 C215.355434,196.540941 205.790886,200.181873 196.227236,200.181873" id="Fill-3" fill="#2D3D48"></path>
                <path d="M99.7102536,200.181873 C90.1466038,200.181873 80.582056,196.540941 73.3011102,189.259078 L11.1813883,127.131524 C-3.72712944,112.222025 -3.72712944,87.9605219 11.1813883,73.0501246 L73.3011102,10.9234692 C87.8638998,-3.64115638 111.556607,-3.64115638 126.119397,10.9234692 L206.862643,91.6768949 C212.123998,96.9371164 212.123998,105.467351 206.862643,110.727572 C201.603085,115.988692 193.073926,115.988692 187.813469,110.727572 L107.070223,29.9741467 C103.012182,25.9155943 96.4083249,25.9155943 92.3502842,29.9741467 L30.2305623,92.1017002 C25.8267934,96.5069224 25.8267934,103.674726 30.2305623,108.079949 L92.3502842,170.207502 C96.4083249,174.266953 103.012182,174.266953 107.070223,170.207502 L138.444382,138.829387 C143.703941,133.569166 152.2331,133.569166 157.493556,138.829387 C162.754013,144.090507 162.754013,152.620741 157.493556,157.880963 L126.119397,189.259078 C118.838451,196.540941 109.273903,200.181873 99.7102536,200.181873" id="Fill-1" fill="#05C059"></path>
                <path d="M169.818093,189.259078 L90.8205493,110.251575 C85.5600929,104.991353 85.5600929,96.4611189 90.8205493,91.1999993 C96.0810057,85.9397778 104.610165,85.9397778 109.869723,91.1999993 L188.867267,170.207502 C192.925307,174.266953 199.529165,174.266953 203.587205,170.207502 L265.706927,108.079949 C270.110696,103.674726 270.110696,96.5069224 265.706927,92.1017002 L203.587205,29.9741467 C199.529165,25.9155943 192.925307,25.9155943 188.867267,29.9741467 L168.334422,50.50958 L149.439826,31.3037213 L169.818093,10.9234692 C184.380882,-3.64115638 208.07359,-3.64115638 222.636379,10.9234692 L284.756101,73.0501246 C299.665517,87.9605219 299.665517,112.222025 284.756101,127.131524 L222.636379,189.259078 C215.355434,196.540941 205.790886,200.181873 196.227236,200.181873 C186.663586,200.181873 177.099038,196.540941 169.818093,189.259078 Z" id="Fill-3" fill="#2D3D48"></path>
            </g>
        </g>
    </g>
</svg>