<svg xmlns="http://www.w3.org/2000/svg" xmlns:xlink="http://www.w3.org/1999/xlink" fill="none" version="1.1" width="158.40000915527344" height="36" viewBox="0 0 158.40000915527344 36"><g><g><path d="M89.77402924804687,11.019595546875C90.50302924804687,11.019595546875,91.13132924804688,11.298145546875,91.65882924804687,11.851895546875C92.18632924804687,12.405645546875,92.47522924804687,13.100355546875,92.53232924804688,13.936015546875L93.02282924804688,22.853035546875L99.11072924804688,13.966215546875L101.67752924804688,13.966215546875L105.66222924804688,23.262535546875L108.71952924804688,12.818445546875001C109.19322924804688,11.620335546875001,109.93912924804687,11.019595546875,110.95712924804687,11.019595546875L113.38622924804687,11.019595546875L107.87292924804687,29.779935546875L103.36752924804688,29.779935546875L99.84652924804688,19.718535546875L93.67802924804687,29.779935546875L89.28342924804687,29.779935546875L88.40992924804688,11.019595546875L89.77402924804687,11.019595546875ZM89.47732924804687,6.277145946875L89.31272924804688,7.283965546875C89.18502924804687,8.012225546875,88.85242924804687,8.606255546875,88.31482924804688,9.069385546875C87.77732924804687,9.535885546875,87.14562924804687,9.764095546875,86.41992924804687,9.764095546875L82.13292924804688,9.764095546875L79.84158924804687,26.067835546875C79.67695924804687,27.161935546875,79.19315924804687,28.051235546875,78.39353924804688,28.742635546875C77.59391924804687,29.433935546875,76.65655924804688,29.779635546875,75.58143924804688,29.779635546875L74.24425924804687,29.779635546875L77.05635924804687,9.764095546875L70.04122924804688,9.764095546875L70.20249924804688,8.998915546875C70.36712524804688,8.200165546875,70.75349424804688,7.549095546875,71.36496924804688,7.0389715468750005C71.97307924804687,6.528850546875,72.67861924804687,6.277145946875,73.47823924804688,6.277145946875L89.47732924804687,6.277145946875ZM119.85642924804688,6.221435546875L122.91382924804688,6.221435546875L122.55762924804688,8.758615546875C122.48712924804687,9.121075546875,122.32242924804687,9.416405546875,122.06712924804688,9.644615546875C121.81182924804688,9.869475546875,121.51272924804687,9.983575546875,121.16672924804688,9.983575546875L117.86412924804688,9.983575546875L118.19002924804687,7.6410455468750005C118.24712924804687,7.221545546875,118.43192924804688,6.879223546875,118.75102924804688,6.617450546875C119.07022924804687,6.352321546875,119.43642924804688,6.221435546875,119.85642924804688,6.221435546875ZM117.23582924804688,13.447035546875C117.32652924804688,12.936915546875,117.55832924804687,12.520765546875001,117.93132924804686,12.191865546875C118.30422924804688,11.866325546875,118.74432924804688,11.701885546875001,119.25502924804687,11.701885546875001L122.01332924804687,11.701885546875001L120.04792924804687,25.961835546875C119.88332924804688,27.109535546875,119.38272924804687,28.039235546875,118.54612924804687,28.757335546875C117.70952924804688,29.475535546875,116.73522924804688,29.834635546875,115.62652924804686,29.834635546875L114.99822924804687,29.834635546875L117.23582924804688,13.447035546875ZM131.56642924804686,17.728335546875L130.17552924804687,27.732735546875C130.06462924804688,28.333535546875,129.7925292480469,28.826835546875,129.35572924804688,29.206135546875C128.91902924804688,29.588635546875,128.40152924804687,29.779935546875,127.80022924804688,29.779935546875L125.15272924804688,29.779935546875L127.41712924804688,13.529925546874999C127.52802924804688,12.818445546875001,127.84052924804688,12.241205546875001,128.35792924804687,11.794845546874999C128.87862924804688,11.351845546875001,129.4834292480469,11.126985546875,130.17552924804687,11.126985546875L131.7848292480469,11.126985546875L131.40182924804688,14.046765546875001C132.46012924804688,13.046655546875,133.50502924804687,12.291545546875,134.54312924804688,11.784775546875C135.56122924804686,11.291435546875,136.58922924804688,11.046445546874999,137.6274292480469,11.046445546874999C138.77312924804687,11.046445546874999,139.71042924804686,11.227675546875,140.43952924804688,11.593485546875C141.16522924804687,11.972715546875001,141.71962924804689,12.486195546874999,142.10262924804687,13.120485546874999C142.5024292480469,13.771565546875,142.74762924804688,14.530035546875,142.83832924804688,15.382475546875C142.92912924804688,16.255035546875,142.89552924804687,17.292035546875,142.73082924804686,18.493535546875002L141.4474292480469,29.779935546875L136.72702924804688,29.779935546875L137.89952924804686,19.282235546875C138.00702924804688,18.483435546875,138.0373292480469,17.845835546875,137.98022924804687,17.375935546875C137.92642924804687,16.919535546875,137.8088292480469,16.530235546874998,137.6274292480469,16.201355546875C137.4628292480469,15.855675546875,137.20742924804688,15.590545546875,136.86142924804687,15.412675546875C136.53552924804688,15.228095546875,136.13232924804686,15.137485546875,135.66202924804688,15.137485546875C135.06052924804686,15.137485546875,134.42562924804687,15.355625546875,133.75022924804688,15.791915546875C133.07832924804688,16.248335546874998,132.34922924804687,16.892735546875002,131.56642924804686,17.728335546875ZM157.00572924804686,20.399435546875C157.33492924804688,20.818935546875,157.58022924804686,21.315635546875,157.74152924804687,21.899635546875C157.90612924804688,22.463435546875,157.92292924804687,23.124535546875,157.7986292480469,23.889735546875C157.6709292480469,24.869735546875,157.36852924804685,25.735635546875,156.89822924804687,26.480635546875C156.44132924804688,27.188735546875,155.87682924804687,27.796235546875,155.20492924804688,28.306335546875C154.51282924804687,28.796335546875,153.74672924804688,29.168835546875,152.91022924804687,29.423935546875C152.05682924804688,29.662135546875,151.17322924804688,29.779635546875,150.26272924804687,29.779635546875C149.64452924804687,29.779635546875,149.0733292480469,29.722635546875,148.5425292480469,29.615235546875C148.03522924804687,29.524535546875,147.58832924804688,29.407135546875,147.2053292480469,29.262835546875C146.78542924804688,29.115135546875,146.44942924804687,28.954035546875,146.1974292480469,28.769435546875C145.90512924804688,28.605035546875,145.69682924804687,28.433835546875,145.56912924804686,28.252635546875L145.37762924804687,27.980835546875L145.7875292480469,27.027635546875C146.0597292480469,26.406835546875,146.47962924804688,25.933635546875,147.0441292480469,25.608035546875C147.64212924804687,25.279135546875,148.27042924804687,25.218735546875,148.92552924804687,25.416735546875L149.00952924804687,25.443635546875C149.06332924804687,25.463735546875,149.1170292480469,25.480535546875,149.17082924804686,25.500635546875C149.57392924804688,25.608035546875,150.05442924804686,25.661735546875,150.6188292480469,25.661735546875C150.98172924804686,25.661735546875,151.32102924804687,25.628235546875,151.62682924804687,25.551035546875C151.91902924804685,25.463735546875,152.17442924804686,25.346235546875,152.3928292480469,25.198635546875C152.55742924804687,25.074435546875,152.7019292480469,24.910035546875,152.82952924804687,24.708635546875C152.94042924804688,24.490535546875,153.0210292480469,24.245535546875,153.07482924804688,23.970335546875C153.1118292480469,23.735335546875,153.07482924804688,23.537335546875,152.9673292480469,23.372935546875C152.81952924804688,23.151435546875,152.62802924804686,22.953435546875,152.3928292480469,22.772235546875C152.13742924804689,22.587635546875,151.82162924804686,22.409735546875,151.43862924804688,22.225135546875C151.01862924804686,22.043935546874998,150.59872924804688,21.835835546875,150.18212924804686,21.597535546875C149.74532924804686,21.399535546875,149.31522924804688,21.154535546875,148.8987292480469,20.862635546874998C148.46192924804689,20.573935546875,148.0889292480469,20.208135546875,147.7798292480469,19.771835546875C147.45402924804688,19.338935546875,147.21542924804686,18.825435546875,147.07092924804687,18.244835546875002C146.90632924804686,17.681035546875002,146.86942924804686,17.009835546875,146.96012924804688,16.227835546875C147.1247292480469,15.375425546875,147.42372924804687,14.637095546875,147.86052924804687,14.019575546875C148.2805292480469,13.365145546874999,148.8079292480469,12.808035546875,149.44632924804688,12.358325546875001C150.06452924804688,11.922035546875,150.7633292480469,11.593145546875,151.5461292480469,11.375005546875C152.78592924804687,11.029325546875,154.00212924804686,10.958855546875,155.20492924804688,11.156855546875C155.60472924804688,11.210555546875,155.9877292480469,11.291105546875,156.35052924804688,11.401855546875C156.71682924804688,11.526025546875001,157.03262924804687,11.656915546875,157.30472924804687,11.784445546875L157.33492924804688,11.807935546875001C157.42572924804688,11.864985546875001,157.51642924804688,11.922035546875,157.60712924804687,11.972385546875C157.7146292480469,12.049575546875001,157.8423292480469,12.120045546875,157.98672924804686,12.193885546875L158.40002924804688,12.465725546875L157.7146292480469,13.965885546875C157.55332924804688,14.345115546875,157.23422924804686,14.697505546875,156.76042924804688,15.016325546875C156.28672924804687,15.331795546875,155.58792924804686,15.355285546875,154.65722924804686,15.083445546875C154.29442924804687,14.972705546875,153.92822924804688,14.892155546875,153.56872924804688,14.838455546875C153.23942924804686,14.838455546875,152.95722924804687,14.882085546875,152.72202924804688,14.972705546875C152.50362924804688,15.026395546875,152.32892924804688,15.110295546875,152.20132924804687,15.217695546875C152.0366292480469,15.345225546875,151.91902924804685,15.492885546875,151.84512924804687,15.653975546875C151.73762924804686,15.838565546875,151.66372924804688,16.016435546875,151.62682924804687,16.201015546875C151.60992924804688,16.435935546875,151.6469292480469,16.647335546875,151.73762924804686,16.828635546875C151.86532924804686,17.026635546875,152.04672924804686,17.211235546875002,152.28532924804688,17.375635546875C152.59442924804688,17.590435546875,152.93032924804686,17.781735546874998,153.29322924804688,17.946135546875C153.7300292480469,18.144135546875,154.14992924804687,18.345535546875,154.54972924804687,18.543535546875C155.0033292480469,18.765035546874998,155.44002924804687,19.020135546875,155.86002924804689,19.308735546875C156.2968292480469,19.620835546875,156.67642924804687,19.983335546875,157.00572924804686,20.399435546875Z" fill-rule="evenodd" fill="#FFFFFF" fill-opacity="1"/></g><g><g><path d="M35.265920214843746,36C33.54722021484375,36,31.82822021484375,35.3452,30.51972021484375,34.0357L16.32227721484375,19.8273C15.37686721484375,18.8813,15.37686721484375,17.3472,16.32227721484375,16.4011C17.26769021484375,15.4551,18.80055021484375,15.4551,19.74579021484375,16.4011L33.94322021484375,30.6095C34.67252021484375,31.3396,35.85942021484375,31.3396,36.58872021484375,30.6095L47.75282021484375,19.4367C48.54432021484375,18.6445,48.54432021484375,17.3555,47.75282021484375,16.5632L36.58872021484375,5.39044C35.85942021484375,4.66057,34.67252021484375,4.66057,33.94322021484375,5.39044L28.30462021484375,11.0334C27.35942021484375,11.9794,25.82652021484375,11.9794,24.88115021484375,11.0334C23.93574021484375,10.0874,23.93574021484375,8.55319,24.88115021484375,7.60721L30.51972021484375,1.96444C33.136920214843755,-0.654813,37.395020214843754,-0.654813,40.01222021484375,1.96444L51.17642021484375,13.1371C53.85592021484375,15.8185,53.85592021484375,20.1816,51.17642021484375,22.8629L40.01222021484375,34.0357C38.70372021484375,35.3452,36.98472021484375,36,35.265920214843746,36Z" fill-rule="evenodd" fill="#2D3D48" fill-opacity="1"/></g><g><path d="M17.9199,36C16.2011,36,14.4822,35.3452,13.1737,34.0357L2.00952,22.8629C-0.66984,20.1816,-0.66984,15.8185,2.00952,13.1371L13.1737,1.96444C15.7909,-0.654813,20.049,-0.654813,22.6662,1.96444L37.1774,16.4868C38.1229,17.4328,38.1229,18.9669,37.1774,19.9129C36.2321,20.859,34.6992,20.859,33.7538,19.9129L19.2427,5.39044C18.5133,4.66057,17.3265,4.66057,16.5972,5.39044L5.43304,16.5632C4.64159,17.3555,4.64159,18.6445,5.43304,19.4367L16.5972,30.6095C17.3265,31.3396,18.5133,31.3396,19.2427,30.6095L24.8812,24.9666C25.8265,24.0206,27.3593,24.0206,28.3047,24.9666C29.2501,25.9127,29.2501,27.4468,28.3047,28.3928L22.6662,34.0357C21.3576,35.3452,19.6387,36,17.9199,36Z" fill-rule="evenodd" fill="#2D3D48" fill-opacity="1"/></g><g><path d="M30.51972021484375,34.0357L16.32227721484375,19.8273C15.37686721484375,18.8813,15.37686721484375,17.3472,16.32227721484375,16.4011C17.26769021484375,15.4551,18.80055021484375,15.4551,19.74579021484375,16.4011L33.94322021484375,30.6095C34.67252021484375,31.3396,35.85942021484375,31.3396,36.58872021484375,30.6095L47.75282021484375,19.4367C48.54432021484375,18.6445,48.54432021484375,17.3555,47.75282021484375,16.5632L36.58872021484375,5.39044C35.85942021484375,4.66057,34.67252021484375,4.66057,33.94322021484375,5.39044L30.25312021484375,9.08346L26.85732021484375,5.62955L30.51972021484375,1.96444C33.136920214843755,-0.654813,37.395020214843754,-0.654813,40.01222021484375,1.96444L51.17642021484375,13.1371C53.85592021484375,15.8185,53.85592021484375,20.1816,51.17642021484375,22.8629L40.01222021484375,34.0357C38.70372021484375,35.3452,36.98472021484375,36,35.265920214843746,36C33.54722021484375,36,31.82822021484375,35.3452,30.51972021484375,34.0357Z" fill-rule="evenodd" fill="#FFFFFF" fill-opacity="1"/></g></g></g></svg>